<svg width="32" height="32" viewBox="0 0 32 32" fill="none" xmlns="http://www.w3.org/2000/svg">
<g clip-path="url(#clip0_2667_78800)">
<path d="M22.19 3.29883H9.81C8.79953 3.29883 7.83044 3.70024 7.11592 4.41475C6.40141 5.12926 6 6.09835 6 7.10883V27.4258C6.00048 27.648 6.05925 27.8662 6.17045 28.0586C6.28164 28.251 6.44137 28.4109 6.63368 28.5222C6.82599 28.6335 7.04414 28.6925 7.26636 28.6931C7.48857 28.6937 7.70706 28.6361 7.9 28.5258L16 24.4928L24.1 28.5308C24.2929 28.6411 24.5114 28.6987 24.7336 28.6981C24.9559 28.6975 25.174 28.6385 25.3663 28.5272C25.5586 28.4159 25.7184 28.256 25.8296 28.0636C25.9408 27.8712 25.9995 27.653 26 27.4308V7.10883C26 6.09835 25.5986 5.12926 24.8841 4.41475C24.1696 3.70024 23.2005 3.29883 22.19 3.29883Z" fill="#9013FE" stroke="#7D0EDF"/>
<g filter="url(#filter0_d_2667_78800)">
<path d="M21.7331 12.7666C21.7053 12.6808 21.654 12.6045 21.5851 12.5464C21.5161 12.4883 21.4323 12.4506 21.3431 12.4376L17.9491 11.9446L16.4311 8.8686C16.3912 8.78785 16.3295 8.71986 16.2529 8.67233C16.1764 8.6248 16.0882 8.59961 15.9981 8.59961C15.908 8.59961 15.8197 8.6248 15.7432 8.67233C15.6667 8.71986 15.605 8.78785 15.5651 8.8686L14.0471 11.9446L10.6531 12.4376C10.5639 12.4506 10.4802 12.4884 10.4113 12.5465C10.3425 12.6047 10.2913 12.6809 10.2635 12.7666C10.2357 12.8524 10.2325 12.9441 10.2541 13.0316C10.2758 13.1191 10.3215 13.1987 10.3861 13.2616L12.8401 15.6556L12.2611 19.0356C12.246 19.1243 12.256 19.2155 12.2899 19.2988C12.3239 19.3821 12.3804 19.4543 12.4532 19.5072C12.526 19.5602 12.6121 19.5917 12.7018 19.5983C12.7915 19.6049 12.8813 19.5863 12.9611 19.5446L15.9971 17.9446L19.0321 19.5446C19.1118 19.5863 19.2016 19.6049 19.2913 19.5983C19.3811 19.5917 19.4672 19.5602 19.54 19.5072C19.6127 19.4543 19.6693 19.3821 19.7032 19.2988C19.7372 19.2155 19.7472 19.1243 19.7321 19.0356L19.1531 15.6556L21.6091 13.2616C21.6744 13.1982 21.7205 13.1176 21.742 13.0292C21.7636 12.9407 21.7598 12.848 21.7311 12.7616" fill="white"/>
</g>
</g>
<defs>
<filter id="filter0_d_2667_78800" x="10.24" y="8.59961" width="11.5159" height="12" filterUnits="userSpaceOnUse" color-interpolation-filters="sRGB">
<feFlood flood-opacity="0" result="BackgroundImageFix"/>
<feColorMatrix in="SourceAlpha" type="matrix" values="0 0 0 0 0 0 0 0 0 0 0 0 0 0 0 0 0 0 127 0" result="hardAlpha"/>
<feOffset dy="1"/>
<feColorMatrix type="matrix" values="0 0 0 0 0 0 0 0 0 0 0 0 0 0 0 0 0 0 0.161 0"/>
<feBlend mode="normal" in2="BackgroundImageFix" result="effect1_dropShadow_2667_78800"/>
<feBlend mode="normal" in="SourceGraphic" in2="effect1_dropShadow_2667_78800" result="shape"/>
</filter>
<clipPath id="clip0_2667_78800">
<rect width="32" height="32" fill="white"/>
</clipPath>
</defs>
</svg>
