<svg width="24" height="24" viewBox="0 0 24 24" fill="none" xmlns="http://www.w3.org/2000/svg">
<g clip-path="url(#clip0_3493_131857)">
<path d="M9.79961 3.59961H4.59961C4.04732 3.59961 3.59961 4.04732 3.59961 4.59961V9.79961C3.59961 10.3519 4.04732 10.7996 4.59961 10.7996H9.79961C10.3519 10.7996 10.7996 10.3519 10.7996 9.79961V4.59961C10.7996 4.04732 10.3519 3.59961 9.79961 3.59961Z" fill="#00B78B"/>
<path d="M9.79961 13.1992H4.59961C4.04732 13.1992 3.59961 13.6469 3.59961 14.1992V19.3992C3.59961 19.9515 4.04732 20.3992 4.59961 20.3992H9.79961C10.3519 20.3992 10.7996 19.9515 10.7996 19.3992V14.1992C10.7996 13.6469 10.3519 13.1992 9.79961 13.1992Z" fill="#00B78B"/>
<path d="M19.4002 3.59961H14.2002C13.6479 3.59961 13.2002 4.04732 13.2002 4.59961V9.79961C13.2002 10.3519 13.6479 10.7996 14.2002 10.7996H19.4002C19.9525 10.7996 20.4002 10.3519 20.4002 9.79961V4.59961C20.4002 4.04732 19.9525 3.59961 19.4002 3.59961Z" fill="#00B78B"/>
<path d="M19.4002 13.1992H14.2002C13.6479 13.1992 13.2002 13.6469 13.2002 14.1992V19.3992C13.2002 19.9515 13.6479 20.3992 14.2002 20.3992H19.4002C19.9525 20.3992 20.4002 19.9515 20.4002 19.3992V14.1992C20.4002 13.6469 19.9525 13.1992 19.4002 13.1992Z" fill="#00B78B"/>
</g>
<defs>
<clipPath id="clip0_3493_131857">
<rect width="24" height="24" fill="white"/>
</clipPath>
</defs>
</svg>
