<svg width="24" height="24" viewBox="0 0 24 24" fill="none" xmlns="http://www.w3.org/2000/svg">
<g clip-path="url(#clip0_3493_131849)">
<path d="M20.4002 4.80078H8.4002C7.73745 4.80078 7.2002 5.33804 7.2002 6.00078C7.2002 6.66352 7.73745 7.20078 8.4002 7.20078H20.4002C21.0629 7.20078 21.6002 6.66352 21.6002 6.00078C21.6002 5.33804 21.0629 4.80078 20.4002 4.80078Z" fill="#00B78B"/>
<path d="M4.80039 6.00078C4.80039 5.33804 4.26313 4.80078 3.60039 4.80078C2.93765 4.80078 2.40039 5.33804 2.40039 6.00078C2.40039 6.66352 2.93765 7.20078 3.60039 7.20078C4.26313 7.20078 4.80039 6.66352 4.80039 6.00078Z" fill="#00B78B"/>
<path d="M20.4002 10.8008H8.4002C7.73745 10.8008 7.2002 11.338 7.2002 12.0008C7.2002 12.6635 7.73745 13.2008 8.4002 13.2008H20.4002C21.0629 13.2008 21.6002 12.6635 21.6002 12.0008C21.6002 11.338 21.0629 10.8008 20.4002 10.8008Z" fill="#00B78B"/>
<path d="M4.80039 12.0008C4.80039 11.338 4.26313 10.8008 3.60039 10.8008C2.93765 10.8008 2.40039 11.338 2.40039 12.0008C2.40039 12.6635 2.93765 13.2008 3.60039 13.2008C4.26313 13.2008 4.80039 12.6635 4.80039 12.0008Z" fill="#00B78B"/>
<path d="M20.4002 16.8008H8.4002C7.73745 16.8008 7.2002 17.338 7.2002 18.0008C7.2002 18.6635 7.73745 19.2008 8.4002 19.2008H20.4002C21.0629 19.2008 21.6002 18.6635 21.6002 18.0008C21.6002 17.338 21.0629 16.8008 20.4002 16.8008Z" fill="#00B78B"/>
<path d="M4.80039 18.0008C4.80039 17.338 4.26313 16.8008 3.60039 16.8008C2.93765 16.8008 2.40039 17.338 2.40039 18.0008C2.40039 18.6635 2.93765 19.2008 3.60039 19.2008C4.26313 19.2008 4.80039 18.6635 4.80039 18.0008Z" fill="#00B78B"/>
</g>
<defs>
<clipPath id="clip0_3493_131849">
<rect width="24" height="24" fill="white"/>
</clipPath>
</defs>
</svg>
