<svg width="68" height="68" viewBox="0 0 68 68" fill="none" xmlns="http://www.w3.org/2000/svg">
<path fill-rule="evenodd" clip-rule="evenodd" d="M45.0457 27.3122C44.5156 27.3122 44.0852 27.72 44.0852 28.2221C44.0852 28.7241 44.5156 29.1319 45.0457 29.1319C45.5759 29.1319 46.0062 28.7241 46.0062 28.2221C46.0062 27.72 45.5759 27.3122 45.0457 27.3122V27.3122ZM45.0457 32.507C42.655 32.507 40.7101 30.5846 40.7101 28.2221C40.7101 25.8595 42.655 23.9371 45.0457 23.9371C47.4364 23.9371 49.3813 25.8595 49.3813 28.2221C49.3813 30.5846 47.4364 32.507 45.0457 32.507V32.507ZM50.0732 46.3872C50.7258 45.7234 50.7159 44.6546 50.0507 44.0021L40.6018 34.7346C39.9451 34.0891 38.8946 34.0891 38.2379 34.7346L35.6925 37.2322L30.2726 31.915C29.6159 31.2695 28.5654 31.2695 27.9086 31.915L17.6638 41.9644C16.9986 42.6169 16.9874 43.6857 17.6399 44.3494C18.2938 45.0188 19.3626 45.0287 20.0264 44.3734L29.0913 35.4842L34.5112 40.8C35.1679 41.4454 36.2184 41.4454 36.8752 40.8L39.4192 38.3024L47.6868 46.4111C48.0158 46.7345 48.4419 46.8948 48.868 46.8948C49.3054 46.8948 49.7428 46.7261 50.0732 46.3872V46.3872ZM16.5584 20.5001C15.6303 20.5001 14.8737 21.2553 14.8737 22.1848V48.3166C14.8737 49.2448 15.6303 49.9985 16.5584 49.9985H51.4416C52.3697 49.9985 53.1249 49.2448 53.1249 48.3166V22.1848C53.1249 21.2553 52.3697 20.5001 51.4416 20.5001H16.5584ZM51.4416 53.3736H16.5584C13.7684 53.3736 11.5 51.1053 11.5 48.3166V22.1848C11.5 19.3948 13.7684 17.125 16.5584 17.125H51.4416C54.2302 17.125 56.5 19.3948 56.5 22.1848V48.3166C56.5 51.1053 54.2302 53.3736 51.4416 53.3736V53.3736Z" fill="white"/>
</svg>
