<svg width="20" height="20" viewBox="0 0 20 20" fill="none" xmlns="http://www.w3.org/2000/svg">
<g clip-path="url(#clip0_1348_21419)">
<path d="M12.5319 0.52002H6.68389C4.93495 0.52218 3.25828 1.21799 2.02172 2.45481C0.785158 3.69163 0.0896901 5.36844 0.0878906 7.11738L0.0878906 12.9654C0.0904097 14.7138 0.786196 16.39 2.02268 17.6262C3.25916 18.8624 4.93542 19.5579 6.68389 19.56H12.5319C14.2808 19.5579 15.9575 18.862 17.1941 17.6252C18.4306 16.3884 19.1261 14.7116 19.1279 12.9627V7.11466C19.1254 5.36619 18.4296 3.69008 17.1931 2.45385C15.9566 1.21762 14.2804 0.522178 12.5319 0.52002V0.52002ZM13.3588 11.3905H10.9584V13.7909C10.9472 14.1415 10.8002 14.474 10.5482 14.718C10.2963 14.9621 9.95932 15.0985 9.60857 15.0985C9.25782 15.0985 8.92083 14.9621 8.66891 14.718C8.41699 14.474 8.2699 14.1415 8.25877 13.7909V11.3905H5.85837C5.67751 11.3962 5.49733 11.3656 5.32855 11.3003C5.15977 11.2351 5.00583 11.1366 4.87586 11.0107C4.74589 10.8848 4.64255 10.734 4.57198 10.5674C4.50141 10.4008 4.46504 10.2217 4.46504 10.0407C4.46504 9.85975 4.50141 9.68064 4.57198 9.51401C4.64255 9.34739 4.74589 9.19664 4.87586 9.07073C5.00583 8.94483 5.15977 8.84632 5.32855 8.78107C5.49733 8.71582 5.67751 8.68516 5.85837 8.6909H8.25877V6.2905C8.25303 6.10964 8.28369 5.92946 8.34894 5.76068C8.41419 5.5919 8.5127 5.43796 8.63861 5.30799C8.76451 5.17802 8.91526 5.07468 9.08188 5.00411C9.24851 4.93354 9.42762 4.89717 9.60857 4.89717C9.78953 4.89717 9.96863 4.93354 10.1353 5.00411C10.3019 5.07468 10.4526 5.17802 10.5785 5.30799C10.7044 5.43796 10.8029 5.5919 10.8682 5.76068C10.9334 5.92946 10.9641 6.10964 10.9584 6.2905V8.6909H13.3588C13.7093 8.70203 14.0418 8.84912 14.2859 9.10104C14.5299 9.35296 14.6664 9.68995 14.6664 10.0407C14.6664 10.3914 14.5299 10.7284 14.2859 10.9804C14.0418 11.2323 13.7093 11.3794 13.3588 11.3905V11.3905Z" fill="#72777B"/>
</g>
<defs>
<clipPath id="clip0_1348_21419">
<rect width="19.04" height="19.04" fill="white" transform="translate(0.0878906 0.52002)"/>
</clipPath>
</defs>
</svg>
