<svg width="18" height="18" viewBox="0 0 18 18" fill="none" xmlns="http://www.w3.org/2000/svg">
<path d="M6.561 0H0.639C0.28609 0 0 0.28609 0 0.639V6.561C0 6.91391 0.28609 7.2 0.639 7.2H6.561C6.91391 7.2 7.2 6.91391 7.2 6.561V0.639C7.2 0.28609 6.91391 0 6.561 0Z" fill="#777777"/>
<path d="M6.561 10.8H0.639C0.28609 10.8 0 11.0861 0 11.439V17.361C0 17.7139 0.28609 18 0.639 18H6.561C6.91391 18 7.2 17.7139 7.2 17.361V11.439C7.2 11.0861 6.91391 10.8 6.561 10.8Z" fill="#777777"/>
<path d="M17.3618 0H11.4398C11.0869 0 10.8008 0.28609 10.8008 0.639V6.561C10.8008 6.91391 11.0869 7.2 11.4398 7.2H17.3618C17.7147 7.2 18.0008 6.91391 18.0008 6.561V0.639C18.0008 0.28609 17.7147 0 17.3618 0Z" fill="#777777"/>
<path d="M17.3618 10.8H11.4398C11.0869 10.8 10.8008 11.0861 10.8008 11.439V17.361C10.8008 17.7139 11.0869 18 11.4398 18H17.3618C17.7147 18 18.0008 17.7139 18.0008 17.361V11.439C18.0008 11.0861 17.7147 10.8 17.3618 10.8Z" fill="#777777"/>
</svg>
