<svg xmlns="http://www.w3.org/2000/svg" width="48" height="48" viewBox="0 0 48 48">
    <path style="fill:none" d="M0 0h48v48H0z"/>
    <g data-name="그룹 15842">
        <path data-name="선 80" d="M6.182.75H0A.75.75 0 0 1-.75 0 .75.75 0 0 1 0-.75h6.182a.75.75 0 0 1 .75.75.75.75 0 0 1-.75.75z" transform="translate(15.612 35)" style="fill:#fff"/>
        <path data-name="패스 7717" d="M4.218 17.568a.75.75 0 0 1-.584-.279l-2.423-3a4.346 4.346 0 0 1-.961-2.724V1A.75.75 0 0 1 1 .25h6.437a.75.75 0 0 1 .75.75v10.565a4.346 4.346 0 0 1-.962 2.723l-2.423 3a.75.75 0 0 1-.584.28zM1.75 1.75v9.815a2.842 2.842 0 0 0 .629 1.78l1.839 2.279 1.839-2.279a2.842 2.842 0 0 0 .629-1.78V1.75z" style="fill:#fff" transform="translate(14.485 12)"/>
        <path data-name="선 81" d="M0 6.932a.75.75 0 0 1-.75-.75V0A.75.75 0 0 1 0-.75.75.75 0 0 1 .75 0v6.182a.75.75 0 0 1-.75.75z" transform="translate(18.703 28.818)" style="fill:#fff"/>
        <path data-name="선 82" d="M6.182.75H0A.75.75 0 0 1-.75 0 .75.75 0 0 1 0-.75h6.182a.75.75 0 0 1 .75.75.75.75 0 0 1-.75.75z" transform="translate(26.205 35)" style="fill:#fff"/>
        <path data-name="패스 7718" d="M16.936 17.568a.75.75 0 0 1-.584-.279l-2.423-3a4.346 4.346 0 0 1-.962-2.722V1a.75.75 0 0 1 .75-.75h6.437A.75.75 0 0 1 20.9 1v10.565a4.346 4.346 0 0 1-.962 2.723l-2.423 3a.75.75 0 0 1-.579.28zM14.468 1.75v9.815a2.842 2.842 0 0 0 .629 1.78l1.84 2.279 1.839-2.279a2.842 2.842 0 0 0 .629-1.78V1.75z" transform="translate(12.36 12)" style="fill:#fff"/>
        <path data-name="선 83" d="M0 6.932a.75.75 0 0 1-.75-.75V0A.75.75 0 0 1 0-.75.75.75 0 0 1 .75 0v6.182a.75.75 0 0 1-.75.75z" transform="translate(29.296 28.818)" style="fill:#fff"/>
    </g>
    <path data-name="사각형 10257" style="fill:none" d="M0 0h32v32H0z" transform="translate(8 8)"/>
</svg>
