<svg xmlns="http://www.w3.org/2000/svg" width="24" height="24" viewBox="0 0 24 24">
    <path data-name="패스 8236" d="M0 0h24v24H0z" style="fill:none"/>
    <path data-name="패스 8238" d="M4.3 2.583h12.6a2.553 2.553 0 0 1 2.55 2.55v12.6a2.553 2.553 0 0 1-2.55 2.55H4.3a2.553 2.553 0 0 1-2.55-2.55v-12.6a2.553 2.553 0 0 1 2.55-2.55zm12.6 16.2a1.051 1.051 0 0 0 1.05-1.05v-12.6a1.051 1.051 0 0 0-1.05-1.05H4.3a1.051 1.051 0 0 0-1.05 1.05v12.6a1.051 1.051 0 0 0 1.05 1.05z" transform="translate(1.4 .966)" style="fill:#bdbdbd"/>
    <path data-name="패스 8239" d="M13.333 6.017a.75.75 0 0 1-.75-.75v-3.6a.75.75 0 1 1 1.5 0v3.6a.75.75 0 0 1-.75.75z" transform="translate(2.267 .833)" style="fill:#bdbdbd"/>
    <path data-name="패스 8240" d="M6.667 6.017a.75.75 0 0 1-.75-.75v-3.6a.75.75 0 1 1 1.5 0v3.6a.75.75 0 0 1-.75.75z" transform="translate(1.733 .833)" style="fill:#bdbdbd"/>
    <path data-name="패스 8241" d="M18.7 9.083H2.5a.75.75 0 1 1 0-1.5h16.2a.75.75 0 1 1 0 1.5z" transform="translate(1.4 1.366)" style="fill:#bdbdbd"/>
    <path data-name="사각형 10083" d="M0 0h2.314v2.314H0z" transform="translate(6.793 13.3)" style="fill:#bdbdbd"/>
    <path data-name="사각형 10084" d="M0 0h2.314v2.314H0z" transform="translate(10.843 13.3)" style="fill:#bdbdbd"/>
    <path data-name="사각형 10085" d="M0 0h2.314v2.314H0z" transform="translate(14.893 13.3)" style="fill:#bdbdbd"/>
</svg>
