<svg xmlns="http://www.w3.org/2000/svg" width="48" height="48" viewBox="0 0 48 48">
    <path data-name="사각형 3488" style="fill:none;opacity:.3" d="M0 0h48v48H0z"/>
    <path data-name="사각형 3488" style="fill:none;opacity:.3" d="M0 0h32v32H0z" transform="translate(8 8)"/>
    <path data-name="8725465_bookmark_icon" d="M7.619 1.25h11.762a4.374 4.374 0 0 1 4.369 4.369v19.3a1.96 1.96 0 0 1-.978 1.7h-.005a1.96 1.96 0 0 1-.965.254h-.017a1.96 1.96 0 0 1-.945-.243l-7.34-3.658-7.338 3.66a1.956 1.956 0 0 1-2.912-1.714V5.619A4.374 4.374 0 0 1 7.619 1.25zm14.406 24.069a.457.457 0 0 0 .225-.4v-19.3a2.872 2.872 0 0 0-2.869-2.869H7.619A2.872 2.872 0 0 0 4.75 5.619v19.3a.459.459 0 0 0 .228.4.464.464 0 0 0 .456 0l.04-.022 8.025-4 8.06 4.022a.457.457 0 0 0 .225.059h.016a.453.453 0 0 0 .225-.059z" transform="translate(10.5 9.934)" style="fill:#fff"/>
</svg>
