<svg xmlns="http://www.w3.org/2000/svg" width="48" height="48" viewBox="0 0 48 48">
    <path data-name="사각형 10137" style="fill:none" d="M0 0h48v48H0z"/>
    <path data-name="사각형 10137" style="fill:none" d="M0 0h32v32H0z" transform="translate(8 8)"/>
    <g data-name=":)" transform="translate(10 10)">
        <path data-name="패스 8406" d="M-1896.25-171.25h-.018a12.761 12.761 0 0 1-5.737-1.37l-6.083 1.352a.718.718 0 0 1-.163.018.755.755 0 0 1-.53-.22.746.746 0 0 1-.2-.693l1.352-6.082A12.772 12.772 0 0 1-1909-184a12.665 12.665 0 0 1 3.734-9.014 12.667 12.667 0 0 1 9.016-3.734 12.694 12.694 0 0 1 4.856.954 4.978 4.978 0 0 0-.646 1.358 11.206 11.206 0 0 0-4.211-.811 11.177 11.177 0 0 0-7.955 3.295A11.177 11.177 0 0 0-1907.5-184a11.226 11.226 0 0 0 1.322 5.3.751.751 0 0 1 .071.517l-1.156 5.2 5.2-1.156a.76.76 0 0 1 .163-.017.755.755 0 0 1 .354.088 11.239 11.239 0 0 0 5.279 1.323h.016a11.179 11.179 0 0 0 7.957-3.3A11.175 11.175 0 0 0-1885-184a11.206 11.206 0 0 0-.812-4.211 4.975 4.975 0 0 0 1.357-.646 12.694 12.694 0 0 1 .955 4.857 12.666 12.666 0 0 1-3.734 9.015 12.666 12.666 0 0 1-9.016 3.735z" transform="translate(1910.25 198)" style="fill:#fff"/>
        <path data-name="패스 8330" d="M498.513-1521.749h-.294c-3.451-.1-5.094-1.8-5.865-3.2a6.87 6.87 0 0 1-.826-3.047.75.75 0 0 1 .75-.746.75.75 0 0 1 .746.752 5.423 5.423 0 0 0 .668 2.369 4.991 4.991 0 0 0 4.566 2.377 5.034 5.034 0 0 0 3.775-1.22 5.545 5.545 0 0 0 1.49-3.535.751.751 0 0 1 .75-.741h.008a.749.749 0 0 1 .742.755 7 7 0 0 1-1.939 4.592 6.341 6.341 0 0 1-4.571 1.644z" transform="translate(-484.279 1542)" style="fill:#fff"/>
        <circle data-name="타원 752" cx="3" cy="3" r="3" transform="translate(20 2)" style="fill:#ffd300"/>
    </g>
</svg>
