<svg xmlns="http://www.w3.org/2000/svg" width="48" height="48" viewBox="0 0 48 48">
    <path style="fill:none" d="M0 0h48v48H0z"/>
    <g data-name="그룹 15843">
        <path data-name="패스 7722" d="M23 7.576H1a.65.65 0 0 1-.475-1.094L6.07.555a.65.65 0 0 1 .475-.206h10.91a.65.65 0 0 1 .475.206l5.545 5.926A.65.65 0 0 1 23 7.576zm-20.5-1.3h19l-4.327-4.627H6.827z" style="fill:#fff" transform="translate(12 13.4)"/>
        <path data-name="패스 7723" d="M12 22.169a.65.65 0 0 1-.5-.233L.5 8.785A.65.65 0 0 1 1 7.718h22a.65.65 0 0 1 .5 1.067l-11 13.15a.65.65 0 0 1-.5.234zM2.391 9.018 12 20.506l9.609-11.488z" transform="translate(12 11.957)" style="fill:#fff"/>
        <path data-name="패스 7724" d="M13.933 22.169a.65.65 0 0 1-.633-.5L10.238 8.516a.65.65 0 0 1 .633-.8h6.123a.65.65 0 0 1 .633.8l-3.062 13.15a.65.65 0 0 1-.632.503zM11.69 9.018l2.243 9.634 2.243-9.634z" transform="translate(10.067 11.957)" style="fill:#fff"/>
        <path data-name="패스 7725" d="M16.411 7.576a.65.65 0 0 1-.577-.352L13.35 2.416l-2.484 4.809a.65.65 0 0 1-1.18-.055L7.292 1.243A.65.65 0 0 1 8.5.757l1.861 4.613L12.772.7a.65.65 0 0 1 1.155 0l2.412 4.67L18.2.757a.65.65 0 0 1 1.205.487L17.014 7.17a.65.65 0 0 1-.572.406z" transform="translate(10.65 13.4)" style="fill:#fff"/>
    </g>
    <path data-name="사각형 10256" style="fill:none" d="M0 0h32v32H0z" transform="translate(8 8)"/>
</svg>
