<svg width="24" height="24" viewBox="0 0 24 24" fill="none" xmlns="http://www.w3.org/2000/svg">
<g clip-path="url(#clip0_3095_36700)">
<path d="M6.72156 18C6.72107 18.3715 6.79947 18.7389 6.95156 19.078H4.50156C4.26287 19.078 4.03395 18.9831 3.86517 18.8143C3.69638 18.6456 3.60156 18.4166 3.60156 18.178C3.60156 17.9393 3.69638 17.7103 3.86517 17.5416C4.03395 17.3728 4.26287 17.278 4.50156 17.278H6.82056V17.296C6.97603 16.7364 7.31161 16.2437 7.77535 15.8941C8.2391 15.5445 8.80515 15.3575 9.38589 15.362C9.96663 15.3666 10.5297 15.5624 10.9879 15.9193C11.4461 16.2761 11.7739 16.774 11.9206 17.336L11.9016 17.281H19.5016C19.7403 17.281 19.9692 17.3758 20.138 17.5446C20.3067 17.7133 20.4016 17.9423 20.4016 18.181C20.4016 18.4196 20.3067 18.6486 20.138 18.8173C19.9692 18.9861 19.7403 19.081 19.5016 19.081H11.7706C11.9233 18.7414 12.0017 18.3732 12.0006 18.001C12.0074 18.3519 11.9442 18.7007 11.8146 19.0269C11.685 19.3531 11.4917 19.6502 11.2459 19.9008C11.0001 20.1514 10.7068 20.3505 10.3832 20.4864C10.0596 20.6223 9.71208 20.6923 9.36106 20.6923C9.01005 20.6923 8.66256 20.6223 8.33892 20.4864C8.01529 20.3505 7.722 20.1514 7.47622 19.9008C7.23045 19.6502 7.03711 19.3531 6.90753 19.0269C6.77795 18.7007 6.71473 18.3519 6.72156 18.001V18ZM8.40056 18C8.40036 18.1899 8.4565 18.3756 8.56187 18.5336C8.66723 18.6916 8.81709 18.8148 8.99249 18.8876C9.16789 18.9604 9.36095 18.9796 9.54724 18.9426C9.73352 18.9057 9.90467 18.8143 10.039 18.6801C10.1734 18.5459 10.2649 18.3749 10.302 18.1886C10.3392 18.0024 10.3202 17.8093 10.2476 17.6338C10.175 17.4583 10.0519 17.3083 9.89401 17.2028C9.73612 17.0973 9.55048 17.041 9.36056 17.041C9.10638 17.0415 8.86276 17.1427 8.68303 17.3224C8.5033 17.5022 8.40209 17.7458 8.40156 18H8.40056ZM11.9466 17.46V17.445V17.46ZM11.9386 17.423V17.404V17.423ZM11.9306 17.389L11.9196 17.343L11.9306 17.389ZM6.80856 17.327V17.32V17.327Z" fill="white"/>
<path d="M6.72156 5.99995C6.72107 6.37151 6.79947 6.73895 6.95156 7.07795H4.50156C4.26287 7.07795 4.03395 6.98313 3.86517 6.81435C3.69638 6.64556 3.60156 6.41665 3.60156 6.17795C3.60156 5.93926 3.69638 5.71034 3.86517 5.54155C4.03395 5.37277 4.26287 5.27795 4.50156 5.27795H6.82056V5.29595C6.97603 4.73639 7.31161 4.24367 7.77535 3.89407C8.2391 3.54446 8.80515 3.35746 9.38589 3.36202C9.96663 3.36657 10.5297 3.56243 10.9879 3.91926C11.4461 4.2761 11.7739 4.77402 11.9206 5.33595L11.9016 5.28095H19.5016C19.7403 5.28095 19.9692 5.37577 20.138 5.54455C20.3067 5.71334 20.4016 5.94226 20.4016 6.18095C20.4016 6.41965 20.3067 6.64856 20.138 6.81735C19.9692 6.98613 19.7403 7.08095 19.5016 7.08095H11.7706C11.9233 6.74145 12.0017 6.37322 12.0006 6.00095C12.0074 6.3519 11.9442 6.70068 11.8146 7.0269C11.685 7.35313 11.4917 7.65023 11.2459 7.90084C11.0001 8.15144 10.7068 8.35052 10.3832 8.48643C10.0596 8.62233 9.71208 8.69233 9.36106 8.69233C9.01005 8.69233 8.66256 8.62233 8.33892 8.48643C8.01529 8.35052 7.722 8.15144 7.47622 7.90084C7.23045 7.65023 7.03711 7.35313 6.90753 7.0269C6.77795 6.70068 6.71473 6.3519 6.72156 6.00095V5.99995ZM8.40056 5.99995C8.40036 6.18986 8.4565 6.37557 8.56187 6.53357C8.66723 6.69157 8.81709 6.81477 8.99249 6.88759C9.16789 6.9604 9.36095 6.97956 9.54724 6.94263C9.73352 6.9057 9.90467 6.81435 10.039 6.68013C10.1734 6.54591 10.2649 6.37485 10.302 6.18861C10.3392 6.00236 10.3202 5.80928 10.2476 5.63381C10.175 5.45833 10.0519 5.30834 9.89401 5.20281C9.73612 5.09728 9.55048 5.04095 9.36056 5.04095C9.10638 5.04148 8.86276 5.14269 8.68303 5.32242C8.5033 5.50215 8.40209 5.74577 8.40156 5.99995H8.40056ZM11.9466 5.45995V5.44495V5.45995ZM11.9386 5.42295V5.40395V5.42295ZM11.9306 5.38895L11.9196 5.34295L11.9306 5.38895ZM6.80856 5.32695V5.31995V5.32695Z" fill="white"/>
<path d="M12.0016 12C12.0008 12.3715 12.0788 12.739 12.2306 13.078H4.50156C4.26287 13.078 4.03395 12.9832 3.86517 12.8144C3.69638 12.6456 3.60156 12.4167 3.60156 12.178C3.60156 11.9393 3.69638 11.7104 3.86517 11.5416C4.03395 11.3729 4.26287 11.278 4.50156 11.278H12.1016L12.0946 11.305C12.2474 10.7431 12.5818 10.2474 13.0456 9.89513C13.5094 9.54288 14.0766 9.35381 14.659 9.35735C15.2414 9.36089 15.8063 9.55683 16.2657 9.91469C16.7252 10.2725 17.0535 10.7722 17.1996 11.336L17.1846 11.278H19.5016C19.6198 11.278 19.7368 11.3013 19.846 11.3465C19.9552 11.3918 20.0544 11.4581 20.138 11.5416C20.2215 11.6252 20.2878 11.7244 20.3331 11.8336C20.3783 11.9428 20.4016 12.0598 20.4016 12.178C20.4016 12.2962 20.3783 12.4133 20.3331 12.5224C20.2878 12.6316 20.2215 12.7309 20.138 12.8144C20.0544 12.898 19.9552 12.9643 19.846 13.0095C19.7368 13.0548 19.6198 13.078 19.5016 13.078H17.0516C17.2043 12.7385 17.2827 12.3703 17.2816 11.998C17.2816 12.6982 17.0034 13.3697 16.5083 13.8648C16.0132 14.3599 15.3417 14.638 14.6416 14.638C13.9414 14.638 13.2699 14.3599 12.7748 13.8648C12.2797 13.3697 12.0016 12.6982 12.0016 11.998V12ZM13.6816 12C13.6814 12.1899 13.7375 12.3757 13.8429 12.5337C13.9482 12.6917 14.0981 12.8149 14.2735 12.8877C14.4489 12.9605 14.6419 12.9796 14.8282 12.9427C15.0145 12.9058 15.1857 12.8144 15.32 12.6802C15.4544 12.546 15.5459 12.3749 15.583 12.1887C15.6202 12.0024 15.6012 11.8094 15.5286 11.6339C15.456 11.4584 15.3329 11.3084 15.175 11.2029C15.0171 11.0974 14.8315 11.041 14.6416 11.041C14.3872 11.0413 14.1433 11.1424 13.9634 11.3221C13.7834 11.5019 13.6821 11.7457 13.6816 12ZM17.2306 11.465V11.45V11.465ZM17.2226 11.428V11.409V11.428ZM17.2146 11.394L17.2016 11.345L17.2146 11.394ZM12.0866 11.332L12.0926 11.309L12.0866 11.332Z" fill="white"/>
</g>
<defs>
<clipPath id="clip0_3095_36700">
<rect width="24" height="24" fill="white"/>
</clipPath>
</defs>
</svg>
