<svg width="32" height="32" viewBox="0 0 32 32" fill="none" xmlns="http://www.w3.org/2000/svg">
<g clip-path="url(#clip0_2667_78805)">
<path d="M17.8019 19.6949C17.6686 19.6949 17.5372 19.6902 17.4079 19.6809C16.6221 19.6242 15.8577 19.3993 15.1665 19.0212C14.4753 18.6432 13.8735 18.1209 13.4019 17.4899C13.2428 17.2777 13.1745 17.011 13.212 16.7484C13.2495 16.4859 13.3897 16.249 13.6019 16.0899C13.8141 15.9307 14.0808 15.8624 14.3433 15.8999C14.6059 15.9374 14.8428 16.0777 15.0019 16.2899C15.3025 16.6913 15.6859 17.0234 16.1261 17.2637C16.5663 17.504 17.0529 17.6469 17.5531 17.6828C18.0534 17.7186 18.5554 17.6465 19.0254 17.4714C19.4953 17.2963 19.9221 17.0223 20.2769 16.6679L22.9769 13.9679C23.3227 13.648 23.6004 13.2615 23.7933 12.8318C23.9862 12.402 24.0904 11.9377 24.0995 11.4667C24.1087 10.9957 24.0227 10.5277 23.8466 10.0907C23.6706 9.65373 23.4082 9.2568 23.0751 8.92369C22.742 8.59058 22.345 8.32815 21.9081 8.15211C21.4711 7.97608 21.0031 7.89006 20.5321 7.89923C20.0611 7.9084 19.5968 8.01255 19.167 8.20545C18.7372 8.39836 18.3508 8.67603 18.0309 9.02185L16.4809 10.5649C16.2929 10.752 16.0382 10.8567 15.7729 10.8561C15.5077 10.8554 15.2535 10.7494 15.0664 10.5614C14.8793 10.3733 14.7745 10.1186 14.7752 9.85338C14.7759 9.58811 14.8819 9.33396 15.0699 9.14685L16.6169 7.60785C17.6579 6.62524 19.0409 6.08719 20.4723 6.108C21.9036 6.12882 23.2704 6.70686 24.2824 7.71934C25.2943 8.73181 25.8717 10.0989 25.8917 11.5303C25.9118 12.9616 25.3731 14.3444 24.3899 15.3849L21.6899 18.0849C21.1794 18.5955 20.5733 19.0006 19.9062 19.2769C19.239 19.5531 18.524 19.6952 17.8019 19.6949Z" fill="#BDBDBD"/>
<path d="M11.499 25.9821C10.4114 25.9817 9.34839 25.6588 8.44426 25.0543C7.54012 24.4498 6.83551 23.5908 6.41949 22.5859C6.00347 21.581 5.89472 20.4754 6.10699 19.4087C6.31926 18.342 6.84302 17.3622 7.61205 16.5931L10.312 13.8931C10.8696 13.3358 11.5404 12.905 12.2791 12.6296C13.0177 12.3543 13.8069 12.2409 14.5932 12.2973C15.3794 12.3536 16.1444 12.5783 16.8363 12.9561C17.5281 13.3339 18.1306 13.8561 18.603 14.4871C18.7622 14.6993 18.8305 14.966 18.793 15.2285C18.7555 15.4911 18.6152 15.728 18.403 15.8871C18.1909 16.0462 17.9242 16.1146 17.6616 16.0771C17.3991 16.0395 17.1622 15.8993 17.003 15.6871C16.7024 15.2857 16.319 14.9536 15.8789 14.7133C15.4387 14.473 14.952 14.33 14.4518 14.2942C13.9516 14.2584 13.4495 14.3304 12.9796 14.5055C12.5097 14.6806 12.0828 14.9547 11.728 15.3091L9.02805 18.0091C8.68223 18.329 8.40455 18.7154 8.21165 19.1452C8.01875 19.575 7.91459 20.0393 7.90543 20.5103C7.89626 20.9813 7.98227 21.4493 8.15831 21.8863C8.33434 22.3232 8.59678 22.7202 8.92989 23.0533C9.263 23.3864 9.65993 23.6488 10.0969 23.8248C10.5339 24.0009 11.0019 24.0869 11.4729 24.0777C11.9439 24.0686 12.4082 23.9644 12.8379 23.7715C13.2677 23.5786 13.6542 23.3009 13.974 22.9551L15.506 21.4191C15.5989 21.3262 15.7091 21.2525 15.8305 21.2022C15.9518 21.1519 16.0818 21.126 16.2132 21.1259C16.3445 21.1259 16.4746 21.1517 16.596 21.2019C16.7174 21.2521 16.8276 21.3258 16.9205 21.4186C17.0135 21.5115 17.0872 21.6217 17.1375 21.743C17.1878 21.8644 17.2137 21.9944 17.2138 22.1258C17.2138 22.2571 17.188 22.3872 17.1378 22.5085C17.0875 22.6299 17.0139 22.7402 16.921 22.8331L15.383 24.3721C14.8741 24.8837 14.2688 25.2895 13.6022 25.5658C12.9355 25.8421 12.2207 25.9836 11.499 25.9821Z" fill="#BDBDBD"/>
</g>
<defs>
<clipPath id="clip0_2667_78805">
<rect width="32" height="32" fill="white"/>
</clipPath>
</defs>
</svg>
