<svg width="24" height="24" viewBox="0 0 24 24" fill="none" xmlns="http://www.w3.org/2000/svg">
<g clip-path="url(#clip0_3493_131845)">
<path d="M20.4004 9.79961V4.59961C20.4004 4.04732 19.9527 3.59961 19.4004 3.59961L4.60039 3.59961C4.04811 3.59961 3.60039 4.04732 3.60039 4.59961V9.79961C3.60039 10.3519 4.04811 10.7996 4.60039 10.7996H19.4004C19.9527 10.7996 20.4004 10.3519 20.4004 9.79961Z" fill="#00B78B"/>
<path d="M20.4004 19.3992V14.1992C20.4004 13.6469 19.9527 13.1992 19.4004 13.1992L4.60039 13.1992C4.04811 13.1992 3.60039 13.6469 3.60039 14.1992V19.3992C3.60039 19.9515 4.04811 20.3992 4.60039 20.3992H19.4004C19.9527 20.3992 20.4004 19.9515 20.4004 19.3992Z" fill="#00B78B"/>
</g>
<defs>
<clipPath id="clip0_3493_131845">
<rect width="24" height="24" fill="white"/>
</clipPath>
</defs>
</svg>
