<svg xmlns="http://www.w3.org/2000/svg" width="36" height="36" viewBox="0 0 36 36">
    <defs>
        <clipPath id="yr0aunvgwa">
            <circle data-name="타원 676" cx="18" cy="18" r="18" transform="translate(1460 18)" style="stroke:#707070;fill:#fff"/>
        </clipPath>
    </defs>
    <g data-name="ic_flag_ko" transform="translate(-1460 -18)" style="clip-path:url(#yr0aunvgwa)">
        <circle data-name="타원 675" cx="18" cy="18" r="18" transform="translate(1460 18)" style="fill:#fff"/>
        <path data-name="사각형 10110" transform="translate(1457.163 22.425)" style="fill:#fff" d="M0 0h41.672v27.149H0z"/>
        <g data-name="그룹 15771">
            <path data-name="패스 8266" d="M46.718 23.633a6.675 6.675 0 1 1-6.676-6.676 6.675 6.675 0 0 1 6.676 6.676" transform="translate(1438.323 12.573)" style="fill:#f91c1c"/>
            <path data-name="패스 8267" d="M33.9 26.17a6.662 6.662 0 0 0 11.232 6.86 4.025 4.025 0 0 0 .485-3.576 2.961 2.961 0 0 0-2.214-1.763 3.077 3.077 0 0 0-2.8.927 4.714 4.714 0 0 1-1.854 1.492s-2.735.768-3.932-.9a4.469 4.469 0 0 1-.893-2.758z" transform="translate(1438.304 7.527)" style="fill:#2a58ea"/>
            <path data-name="사각형 10111" d="m1486.664 26.948.866-.667 3.771 4.897-.865.667z"/>
            <path data-name="사각형 10112" d="m1487.987 25.93.866-.667 1.518 1.972-.866.666z"/>
            <path data-name="사각형 10113" d="m1490.242 28.859.866-.667 1.519 1.972-.866.667z"/>
            <path data-name="사각형 10114" d="m1485.291 28.006.866-.667 1.519 1.972-.866.667z"/>
            <path data-name="사각형 10115" d="m1487.547 30.935.866-.667 1.518 1.972-.866.666z"/>
            <path data-name="사각형 10116" d="m1465.052 31.349 3.686-4.964.877.651-3.685 4.965z"/>
            <path data-name="패스 8268" d="m1470.078 27.381-1.2 1.614-.286.385-2.2 2.968.877.652 2.2-2.968.286-.385 1.2-1.613z"/>
            <path data-name="패스 8269" d="m1467.347 25.353-1.286 1.73-.2.268-2.2 2.968.877.652 2.2-2.968.2-.268 1.285-1.731z"/>
            <path data-name="패스 8270" d="m1470.678 44.273-2.175-2.989-1.465-2.011-.884.643 1.465 2.013 2.175 2.989z"/>
            <path data-name="사각형 10117" d="m1464.775 40.921.884-.643 1.464 2.012-.883.643z"/>
            <path data-name="사각형 10118" d="m1466.95 43.911.884-.643 1.464 2.012-.883.643z"/>
            <path data-name="패스 8271" d="m1467.928 46.278-2.5-3.436-1.14-1.566-.884.643 1.465 2.013 2.176 2.989z"/>
            <path data-name="사각형 10119" d="m1487.735 41.287 1.465-2.012.883.643-1.464 2.012z"/>
            <path data-name="사각형 10120" d="m1485.56 44.276 1.464-2.014.884.643-1.464 2.014z"/>
            <path data-name="사각형 10121" d="m1489.115 42.29 1.465-2.012.884.643-1.465 2.012z"/>
            <path data-name="사각형 10122" d="m1486.939 45.28 1.465-2.012.884.643-1.465 2.012z"/>
            <path data-name="사각형 10123" d="m1490.487 43.288 1.464-2.014.884.643-1.464 2.014z"/>
            <path data-name="사각형 10124" d="m1488.311 46.278 1.465-2.012.884.643-1.465 2.012z"/>
            <path data-name="사각형 10125" style="fill:none" d="M0 0h42.803v28.28H0z" transform="translate(1456.598 21.86)"/>
        </g>
    </g>
</svg>
