<svg xmlns="http://www.w3.org/2000/svg" width="36" height="36" viewBox="0 0 36 36">
    <defs>
        <clipPath id="26tpisz1ha">
            <circle data-name="타원 5" cx="18" cy="18" r="18" transform="translate(1460 18)" style="stroke:#707070;fill:#fff"/>
        </clipPath>
        <clipPath id="4agw7w2byb">
            <path data-name="사각형 10046" style="fill:none" d="M0 0h60.543v40H0z"/>
        </clipPath>
    </defs>
    <g data-name="ic_flag_jp" transform="translate(-1460 -18)" style="clip-path:url(#26tpisz1ha)">
        <circle data-name="타원 6" cx="18" cy="18" r="18" transform="translate(1460 18)" style="fill:#fff"/>
        <path data-name="사각형 10045" transform="translate(1448.529 16.8)" style="fill:#fff" d="M0 0h58.943v38.401H0z"/>
        <g data-name="그룹 15536">
            <g data-name="그룹 15535" style="clip-path:url(#4agw7w2byb)" transform="translate(1447.729 16)">
                <path data-name="패스 8202" d="M59.743 40H.8a.8.8 0 0 1-.8-.8V.8A.8.8 0 0 1 .8 0h58.943a.8.8 0 0 1 .8.8v38.4a.8.8 0 0 1-.8.8M1.6 38.4h57.343V1.6H1.6z"/>
                <path data-name="패스 8203" d="M51.2 26.155a9.442 9.442 0 1 1-9.442-9.442 9.442 9.442 0 0 1 9.442 9.442" transform="translate(-11.64 -6.021)" style="fill:#f91c1c"/>
            </g>
        </g>
    </g>
</svg>
