<svg xmlns="http://www.w3.org/2000/svg" width="48" height="48" viewBox="0 0 48 48">
    <path style="fill:none" d="M0 0h48v48H0z"/>
    <path data-name="패스 7695" d="M12.5 28.806a.748.748 0 0 1-.53-.22l-7.78-7.777A11.751 11.751 0 0 1 20.809 4.191a11.753 11.753 0 0 1 0 16.619l-7.778 7.777a.748.748 0 0 1-.531.219zm0-26.555a10.251 10.251 0 0 0-7.248 17.5L12.5 27l7.248-7.247A10.25 10.25 0 0 0 12.5 2.251z" transform="translate(11.499 8.749)" style="fill:#fff"/>
    <path data-name="패스 7696" d="M17.575 12.19a.75.75 0 0 1 .673.418l1.2 2.421 2.671.389a.75.75 0 0 1 .415 1.279L20.6 18.581l.457 2.661a.75.75 0 0 1-1.088.791l-2.391-1.256-2.39 1.256a.75.75 0 0 1-1.088-.791l.457-2.661-1.938-1.881a.75.75 0 0 1 .415-1.279l2.672-.389 1.2-2.421a.75.75 0 0 1 .669-.421zm2.82 4.494-1.558-.227a.75.75 0 0 1-.565-.41l-.7-1.413-.7 1.413a.75.75 0 0 1-.565.41l-1.558.227 1.127 1.1a.75.75 0 0 1 .216.664L15.832 20l1.394-.733a.75.75 0 0 1 .7 0l1.392.733-.266-1.553a.75.75 0 0 1 .216-.664z" transform="translate(6.426 4.471)" style="fill:#fff"/>
    <path data-name="사각형 10253" style="fill:none" d="M0 0h32v32H0z" transform="translate(8 8)"/>
</svg>
