<svg xmlns="http://www.w3.org/2000/svg" width="24" height="24" viewBox="0 0 24 24">
  <defs>
    <style>
      .cls-1 {
        fill: none;
      }

      .cls-2 {
        fill: #9013fe;
      }
    </style>
  </defs>
  <g id="ic_microphone_pp" transform="translate(6386 6607)">
    <rect id="사각형_16922" data-name="사각형 16922" class="cls-1" width="24" height="24" transform="translate(-6386 -6607)"/>
    <g id="그룹_32408" data-name="그룹 32408" transform="translate(-6379.25 -6604)">
      <path id="패스_11674" data-name="패스 11674" class="cls-2" d="M3.482,1.5A1.984,1.984,0,0,0,1.5,3.482V8.446a1.982,1.982,0,0,0,3.964,0V3.482A1.984,1.984,0,0,0,3.482,1.5m0-1.5A3.482,3.482,0,0,1,6.964,3.482V8.446A3.482,3.482,0,0,1,0,8.446V3.482A3.482,3.482,0,0,1,3.482,0Z" transform="translate(2.035)"/>
      <path id="사각형_9909_-_윤곽선" data-name="사각형 9909 - 윤곽선" class="cls-1" d="M3.482,1.006A2.518,2.518,0,0,0,.989,3.541V8.386a2.518,2.518,0,0,0,2.493,2.536A2.518,2.518,0,0,0,5.975,8.386V3.541A2.518,2.518,0,0,0,3.482,1.006M3.482,0A3.512,3.512,0,0,1,6.964,3.541V8.386a3.512,3.512,0,0,1-3.482,3.541A3.512,3.512,0,0,1,0,8.386V3.541A3.512,3.512,0,0,1,3.482,0Z" transform="translate(2.035 0)"/>
      <g id="그룹_15579" data-name="그룹 15579" transform="translate(-0.75 7.665)">
        <path id="패스_8050" data-name="패스 8050" class="cls-2" d="M6.571,32.294A6.328,6.328,0,0,1,.25,25.973a.754.754,0,0,1,1.509,0,4.812,4.812,0,1,0,9.625,0,.754.754,0,0,1,1.509,0A6.328,6.328,0,0,1,6.571,32.294Z" transform="translate(-0.25 -25.219)"/>
        <path id="선_159" data-name="선 159" class="cls-2" d="M0,4.018A.754.754,0,0,1-.75,3.264V0A.754.754,0,0,1,.759,0V3.264A.754.754,0,0,1,0,4.018Z" transform="translate(6.317 6.317)"/>
        <path id="선_160" data-name="선 160" class="cls-2" d="M6.525.759H0A.754.754,0,1,1,0-.75H6.525a.754.754,0,0,1,0,1.509Z" transform="translate(3.056 9.576)"/>
      </g>
    </g>
  </g>
</svg>
