<svg width="24" height="24" viewBox="0 0 24 24" fill="none" xmlns="http://www.w3.org/2000/svg">
<g clip-path="url(#clip0_1348_21421)">
<path fill-rule="evenodd" clip-rule="evenodd" d="M20.6639 14.896C21.2287 14.896 21.7809 14.7285 22.2506 14.4147C22.7203 14.1009 23.0863 13.6548 23.3025 13.133C23.5186 12.6111 23.5752 12.0369 23.465 11.4828C23.3548 10.9288 23.0828 10.4199 22.6834 10.0205C22.284 9.62111 21.7751 9.3491 21.2211 9.2389C20.667 9.1287 20.0928 9.18526 19.5709 9.40142C19.0491 9.61759 18.603 9.98365 18.2892 10.4533C17.9754 10.923 17.8079 11.4752 17.8079 12.04C17.8077 12.4151 17.8814 12.7866 18.0248 13.1332C18.1683 13.4798 18.3787 13.7947 18.6439 14.06C18.9091 14.3252 19.2241 14.5356 19.5707 14.6791C19.9173 14.8225 20.2888 14.8962 20.6639 14.896V14.896ZM12.0959 14.896C12.6607 14.896 13.2129 14.7285 13.6826 14.4147C14.1523 14.1009 14.5183 13.6548 14.7345 13.133C14.9506 12.6111 15.0072 12.0369 14.897 11.4828C14.7868 10.9288 14.5148 10.4199 14.1154 10.0205C13.716 9.62111 13.2071 9.3491 12.6531 9.2389C12.099 9.1287 11.5248 9.18526 11.0029 9.40142C10.4811 9.61759 10.035 9.98365 9.7212 10.4533C9.40738 10.923 9.23988 11.4752 9.23988 12.04C9.23966 12.4151 9.31339 12.7866 9.45684 13.1332C9.60029 13.4798 9.81065 13.7947 10.0759 14.06C10.3411 14.3252 10.6561 14.5356 11.0027 14.6791C11.3493 14.8225 11.7208 14.8962 12.0959 14.896V14.896ZM3.52788 14.896C4.09274 14.896 4.64492 14.7285 5.11458 14.4147C5.58425 14.1009 5.95031 13.6548 6.16648 13.133C6.38264 12.6111 6.4392 12.0369 6.329 11.4828C6.2188 10.9288 5.94679 10.4199 5.54737 10.0205C5.14795 9.62111 4.63906 9.3491 4.08505 9.2389C3.53104 9.1287 2.9568 9.18526 2.43493 9.40142C1.91307 9.61759 1.46702 9.98365 1.1532 10.4533C0.839377 10.923 0.671875 11.4752 0.671875 12.04C0.671661 12.4151 0.745387 12.7866 0.888839 13.1332C1.03229 13.4798 1.24265 13.7947 1.5079 14.06C1.77315 14.3252 2.08808 14.5356 2.43468 14.6791C2.78128 14.8225 3.15276 14.8962 3.52788 14.896V14.896Z" fill="#72777B"/>
</g>
<defs>
<clipPath id="clip0_1348_21421">
<rect width="22.848" height="22.848" fill="white" transform="translate(0.728516 0.616028)"/>
</clipPath>
</defs>
</svg>
