<svg width="18" height="18" viewBox="0 0 18 18" fill="none" xmlns="http://www.w3.org/2000/svg">
<g clip-path="url(#clip0_1417_19895)">
<path d="M16.7014 0.990265H1.29857C0.956894 0.991911 0.62949 1.1275 0.386686 1.3679C0.143881 1.6083 0.00504552 1.93433 0 2.27598V2.80312C0.000680497 3.1472 0.137753 3.47697 0.381172 3.72014C0.624591 3.96332 0.954496 4.10007 1.29857 4.10041H16.7014C17.0455 4.10007 17.3754 3.96332 17.6188 3.72014C17.8622 3.47697 17.9993 3.1472 18 2.80312V2.27855C17.9956 1.93646 17.8571 1.60977 17.6142 1.36881C17.3713 1.12786 17.0435 0.991922 16.7014 0.990265Z" fill="#777777"/>
<path d="M16.7014 7.32858H1.29857C0.956894 7.33023 0.62949 7.46581 0.386686 7.70621C0.143881 7.94661 0.00504552 8.27265 0 8.6143L0 9.13758C0.000340384 9.48188 0.137263 9.81198 0.380719 10.0554C0.624174 10.2989 0.954273 10.4358 1.29857 10.4362H16.7014C17.0444 10.4358 17.3733 10.3 17.6166 10.0582C17.8598 9.81638 17.9976 9.48825 18 9.1453V8.62072C17.997 8.27786 17.859 7.94999 17.6159 7.70814C17.3729 7.46629 17.0443 7.32992 16.7014 7.32858Z" fill="#777777"/>
<path d="M16.6976 13.6761H1.29857C0.956894 13.6778 0.62949 13.8133 0.386686 14.0537C0.143881 14.2941 0.00504552 14.6202 0 14.9618L0 15.4838C0.000340384 15.8281 0.137263 16.1582 0.380719 16.4017C0.624174 16.6451 0.954273 16.7821 1.29857 16.7824H16.6976C17.0419 16.7831 17.3724 16.6471 17.6166 16.4044C17.8607 16.1617 17.9986 15.832 18 15.4877V14.9644C17.9959 14.6215 17.857 14.2941 17.6132 14.0529C17.3694 13.8118 17.0405 13.6764 16.6976 13.6761Z" fill="#777777"/>
</g>
<defs>
<clipPath id="clip0_1417_19895">
<rect width="18" height="18" fill="white"/>
</clipPath>
</defs>
</svg>
