<svg xmlns="http://www.w3.org/2000/svg" width="92" height="56" viewBox="0 0 92 56">
    <path data-name="사각형 10103" style="fill:none" d="M0 0h92v56H0z"/>
    <g data-name="그룹 15620">
        <path data-name="패스 8255" d="M4.915 4.654c-.631 2.163-2.184 3.613-3.468 3.239S-.365 5.46.266 3.3 2.451-.315 3.734.059s1.812 2.432 1.181 4.6" transform="rotate(3 12.24 1452.712)" style="fill:#ffd300"/>
        <path data-name="패스 8256" d="M4.915 4.654c-.632 2.163-2.184 3.613-3.468 3.239S-.365 5.46.267 3.3 2.451-.315 3.734.059s1.812 2.432 1.181 4.6" transform="rotate(3 -30.828 1586.997)" style="fill:#ffd300"/>
        <path data-name="패스 8257" d="M8.348 15.368C1.988 13.511-1.114 6.467.363 1.41a1.958 1.958 0 1 1 3.759 1.1c-.92 3.15 1.25 7.912 5.324 9.1s8.465-1.658 9.385-4.81a1.958 1.958 0 0 1 3.759 1.1c-1.477 5.057-7.881 9.326-14.242 7.469" transform="rotate(3 -57.888 1322.99)" style="fill:#ffd300"/>
    </g>
    <path data-name="패스 8258" d="M132.086 45.322c4.45-.756 8.9-1.7 13.459-1.227a6.406 6.406 0 0 1 5.575 4.125c.905 2.337-.42 4.224-1.954 5.906-.223.245-.448.488-.707.771.833.594 1.677 1.111 2.421 1.743a6.3 6.3 0 0 1 1.753 7.865c-1.461 3.176-3.65 5.341-7.386 5.7a58.53 58.53 0 0 1-13.161-.263zm9.4 18.237c1.986-.048 3.43-1.042 3.408-2.346a1.894 1.894 0 0 0-2.281-1.791c-1 .149-2.542-.1-2.623 1.446-.125 2.379.187 2.723 1.5 2.691m-1.313-9.009c1.556.059 2.318-.266 2.716-1.335a2.189 2.189 0 0 0-.008-1.8 2.031 2.031 0 0 0-1.784-.268c-.38.122-.671.845-.8 1.35a11.328 11.328 0 0 0-.13 2.053" transform="translate(-68.771 -17.349)" style="fill:#fff"/>
    <path data-name="패스 8259" d="M88.058 43.809c3.078.534 5.842 1.012 8.6 1.5a2.8 2.8 0 0 1 .487.206c-.093 1.968-.177 3.956-.284 5.941-.159 2.951-.349 5.9-.494 8.853-.056 1.135-.193 2.753 1.16 2.827s1.477-1.593 1.455-2.685c-.08-4-.293-8-.458-12-.025-.608-.063-1.216-.1-1.913l8.5-1.581c.064 1.341.151 2.6.179 3.87.09 4.1.278 8.2.209 12.3-.121 7.324-4.641 10.184-11.56 9.729-4.681-.308-7.718-3.2-7.877-7.882-.214-6.323.093-12.664.179-19.161" transform="translate(-45.716 -17.266)" style="fill:#fff"/>
    <path data-name="패스 8260" d="m18.224 58.358 6.563 7c-.777.522-1.5.989-2.207 1.486a17.23 17.23 0 0 1-13.24 3.288C3.628 69.154-.631 63.125.077 57.17a18.922 18.922 0 0 1 4.35-10.1c4-4.789 9.71-5.726 14.97-2.364a40.113 40.113 0 0 1 3.9 3.234l-5.559 6.826a27.418 27.418 0 0 0-2.572-1.928c-1.9-1.108-3.481-.695-4.633 1.183-.991 1.616-1.73 3.3-.826 5.245s2.281 2.591 4.3 1.844a11.525 11.525 0 0 0 2.247-1.225c.668-.437 1.269-.977 1.967-1.526" transform="translate(0 -16.691)" style="fill:#fff"/>
    <path data-name="패스 8261" d="m13.738.021 5.869 1.051c-.171 2.983-.366 5.858-.482 8.736-.036.9-.492 2 .783 2.525a8.713 8.713 0 0 0 .883-2.584c.023-2.214-.168-4.433-.343-6.644-.073-.928.034-1.474 1.152-1.576 1.351-.124 2.682-.463 4.4-.777v5.173c0 1.908.1 3.82 0 5.721a5.388 5.388 0 0 1-4.856 5.447c-3.714.592-5.844-.448-7.157-3.489a2.061 2.061 0 0 0-.209-.312A9.162 9.162 0 0 1 1.339 15.7l1.43-4.078a19.788 19.788 0 0 0 2.5.8 6.045 6.045 0 0 0 2.087-.034 1.181 1.181 0 0 0 .731-.76c.048-.183-.333-.6-.606-.724-.683-.307-1.434-.46-2.123-.755-1.689-.721-3.182-1.675-3.4-3.722a5.09 5.09 0 0 1 2.545-5.2C7.291-.452 10.219-.227 13.285.819l-1.152 4.573c-1.94-.479-3.779-1.606-5.919.207 2.85.8 5.617 1.033 7.2 3.59l.323-.136z" transform="translate(-.697 5.543)" style="fill:#fff"/>
    <path data-name="패스 8262" d="M77.106 9.953c-3.259.53-3.259.53-3.234 1.4l5.48-.415v5.39l-10.693.589V7.639c-.369.588-.553.839-.693 1.112a8.876 8.876 0 0 1-5.526 4.682 1.7 1.7 0 0 0-1.448 2.059c.041.61.007 1.224.007 1.954l-4.949-.522V1.2c2.919-.2 6-.566 9.073-.524 1.125.015 2.236 1 3.369 1.557l.131-.756 10.919-.82-.607 4.955c-1.692.322-3.5-.133-5.055.55q.052.291.1.583h3.5l-.382 3.208m-16.469-.689a31.288 31.288 0 0 0 2.579-2.131 1.28 1.28 0 0 0 .077-1.2A1.419 1.419 0 0 0 62.2 5.39c-.966.009-1.726.339-1.584 1.57.07.609.012 1.232.012 2.3" transform="translate(-29.183 5.201)" style="fill:#fff"/>
    <path data-name="패스 8263" d="m62.191 43.833-.78 17.69 7.813-1.564v8.878l-16.232 1.652c-.033-.483-.081-.893-.084-1.3-.071-7.581-.114-15.164-.227-22.744-.016-1.06.305-1.381 1.334-1.492 2.649-.287 5.281-.712 8.175-1.117" transform="translate(-27.429 -17.279)" style="fill:#fff"/>
    <path data-name="패스 8264" d="m116.6 17.179-4.862-3.538v3.349c-1.514-.132-2.836-.2-4.138-.4a1.17 1.17 0 0 1-.741-.843q-.216-6.986-.292-13.975a1.225 1.225 0 0 1 .757-.915c2.637-.3 5.281-.617 7.93-.7 2.963-.093 4.762 2.163 4.264 5.086a8.16 8.16 0 0 1-2.839 4.834c-.325.285-.661.557-1.079.908l2.053 1.369c.623.416 1.244.833 2 1.336l-3.053 3.489m-5.407-8.216a12.3 12.3 0 0 0 2.3-1.575c.37-.415.376-1.155.545-1.75a8.486 8.486 0 0 0-1.637-.421c-.882-.053-1.034.577-1.038 1.316 0 .652-.088 1.3-.172 2.43" transform="translate(-55.485 5.461)" style="fill:#fff"/>
</svg>
