<svg xmlns="http://www.w3.org/2000/svg" width="48" height="48" viewBox="0 0 48 48">
    <path data-name="사각형 3416" style="fill:none" d="M0 0h48v48H0z"/>
    <path data-name="사각형 3416" style="fill:none" d="M0 0h32v32H0z" transform="translate(8 8)"/>
    <path data-name="패스 7673" d="M22.521 30.009H2.7a1.939 1.939 0 0 1-1.653-.8 1.94 1.94 0 0 1-.13-1.833l.686-1.718.589-1.47v-6.075a10.417 10.417 0 0 1 20.835 0v6.075l1.273 3.187a1.834 1.834 0 0 1-1.783 2.633zM12.611 9.2a8.927 8.927 0 0 0-8.916 8.917v6.219a.75.75 0 0 1-.054.279L3 26.215l-.686 1.717a.5.5 0 0 0-.021.435.5.5 0 0 0 .411.142h19.82a.362.362 0 0 0 .39-.576l-1.329-3.321a.75.75 0 0 1-.054-.279v-6.22a8.928 8.928 0 0 0-8.92-8.913z" transform="translate(11.39 4.973)" style="fill:#fff"/>
    <path data-name="패스 7674" d="M11.465 20.5a.75.75 0 0 1-.75-.75 4.685 4.685 0 0 1 4.68-4.68.75.75 0 1 1 0 1.5 3.184 3.184 0 0 0-3.18 3.18.75.75 0 0 1-.75.75z" transform="translate(6.968 1.703)" style="fill:#fff"/>
    <path data-name="선 75" d="M0 4.286a.75.75 0 0 1-.75-.75V0A.75.75 0 0 1 0-.75.75.75 0 0 1 .75 0v3.536a.75.75 0 0 1-.75.75z" transform="translate(24.001 9.556)" style="fill:#fff"/>
    <path data-name="패스 7675" d="M12.114 45.111h10.4a.75.75 0 0 1 .746.677v.012a3.627 3.627 0 0 1 .023.367 4.236 4.236 0 0 1-1.827 3.383 6.892 6.892 0 0 1-4.142 1.3 6.892 6.892 0 0 1-4.142-1.3 4.236 4.236 0 0 1-1.827-3.383 3.623 3.623 0 0 1 .025-.385.75.75 0 0 1 .744-.671zm9.622 1.5h-8.849a2.949 2.949 0 0 0 1.186 1.744 5.387 5.387 0 0 0 3.238 1 5.387 5.387 0 0 0 3.238-1 2.949 2.949 0 0 0 1.187-1.744z" transform="translate(6.689 -11.629)" style="fill:#fff"/>
</svg>
