<svg xmlns="http://www.w3.org/2000/svg" width="48" height="48" viewBox="0 0 48 48">
    <path style="fill:none" d="M0 0h48v48H0z"/>
    <g data-name="그룹 15841">
        <path data-name="선 91" d="M0 6.719a.75.75 0 0 1-.75-.75V0A.75.75 0 0 1 0-.75.75.75 0 0 1 .75 0v5.969a.75.75 0 0 1-.75.75z" transform="translate(24.5 21.531)" style="fill:#fff"/>
        <path data-name="사각형 3428" d="M0-.75h18.4a.75.75 0 0 1 .75.75v4.884a.75.75 0 0 1-.75.75H0a.75.75 0 0 1-.75-.75V0A.75.75 0 0 1 0-.75zM17.646.75H.75v3.384h16.9z" transform="translate(15.302 30.492)" style="fill:#fff"/>
        <path data-name="패스 7720" d="M17.035 22.73H3.555a.75.75 0 0 1-.75-.75 3.875 3.875 0 0 1 3.988-3.742h7a3.875 3.875 0 0 1 3.988 3.742.75.75 0 0 1-.746.75zm-12.587-1.5h11.694a2.49 2.49 0 0 0-2.342-1.492h-7a2.49 2.49 0 0 0-2.352 1.492z" transform="translate(14.204 8.512)" style="fill:#fff"/>
        <path data-name="타원 639" d="M4.328-.75A5.078 5.078 0 1 1-.75 4.328 5.084 5.084 0 0 1 4.328-.75zm0 8.656A3.578 3.578 0 1 0 .75 4.328a3.582 3.582 0 0 0 3.578 3.578z" transform="translate(20.172 12.5)" style="fill:#fff"/>
        <path data-name="패스 7721" d="M12.3 6.4a.75.75 0 0 1-.75-.75.986.986 0 0 0-.985-.985.75.75 0 1 1 0-1.5A2.488 2.488 0 0 1 13.05 5.65a.75.75 0 0 1-.75.75z" transform="translate(13.936 11.175)" style="fill:#fff"/>
    </g>
    <path data-name="사각형 10258" style="fill:none" d="M0 0h32v32H0z" transform="translate(8 8)"/>
</svg>
