<svg id="menu_forum" xmlns="http://www.w3.org/2000/svg" width="48" height="48" viewBox="0 0 48 48">
  <defs>
    <style>
      .cls-1 {
        fill: none;
      }

      .cls-2 {
        fill: #fff;
      }
    </style>
  </defs>
  <rect id="hover" class="cls-1" width="48" height="48"/>
  <g id="ic_menu_forum" transform="translate(8 8)">
    <g id="그룹_15840" data-name="그룹 15840" transform="translate(4 2.5)">
      <path id="패스_7711" data-name="패스 7711" class="cls-2" d="M12.8.4c1.6,0,3.057,1.419,4.1,4a24.648,24.648,0,0,1,1.512,8.969A24.648,24.648,0,0,1,16.9,22.333c-1.045,2.577-2.5,4-4.1,4s-3.056-1.419-4.1-4a24.651,24.651,0,0,1-1.512-8.969A24.651,24.651,0,0,1,8.7,4.4C9.742,1.819,11.2.4,12.8.4Zm0,24.729c1.063,0,2.153-1.183,2.99-3.247a23.439,23.439,0,0,0,1.425-8.518,23.439,23.439,0,0,0-1.425-8.518C14.951,2.783,13.861,1.6,12.8,1.6S10.646,2.783,9.809,4.847a23.441,23.441,0,0,0-1.424,8.518,23.441,23.441,0,0,0,1.424,8.518C10.646,23.946,11.735,25.129,12.8,25.129Z" transform="translate(-0.799)"/>
      <path id="패스_7712" data-name="패스 7712" class="cls-2" d="M19.33,5.851c1.918,0,3.266.579,3.9,1.673.8,1.386.3,3.357-1.41,5.55a24.644,24.644,0,0,1-7.01,5.794C11.235,20.93,7.445,22.161,4.67,22.161c-1.918,0-3.266-.579-3.9-1.673-.8-1.386-.3-3.356,1.41-5.55A24.648,24.648,0,0,1,9.193,9.145C12.765,7.082,16.555,5.851,19.33,5.851ZM4.67,20.961c2.574,0,6.139-1.171,9.537-3.133a23.434,23.434,0,0,0,6.664-5.492c1.369-1.756,1.849-3.292,1.318-4.212-.4-.692-1.415-1.073-2.859-1.073-2.573,0-6.139,1.171-9.537,3.133a23.438,23.438,0,0,0-6.664,5.492C1.76,17.433,1.28,18.968,1.812,19.888,2.211,20.58,3.226,20.961,4.67,20.961Z" transform="translate(0 -0.642)"/>
      <path id="패스_7713" data-name="패스 7713" class="cls-2" d="M19.33,22.161c-2.775,0-6.564-1.231-10.137-3.294a24.648,24.648,0,0,1-7.011-5.794C.473,10.88-.027,8.909.772,7.524c.632-1.095,1.98-1.673,3.9-1.673,2.775,0,6.565,1.231,10.137,3.294a24.644,24.644,0,0,1,7.01,5.794c1.709,2.193,2.21,4.164,1.41,5.55C22.6,21.583,21.248,22.161,19.33,22.161ZM4.67,7.051c-1.444,0-2.459.381-2.859,1.073-.531.921-.051,2.456,1.317,4.212a23.439,23.439,0,0,0,6.664,5.492c3.4,1.962,6.963,3.133,9.537,3.133,1.444,0,2.459-.381,2.859-1.073.531-.92.051-2.456-1.318-4.212a23.434,23.434,0,0,0-6.664-5.492C10.809,8.222,7.244,7.051,4.67,7.051Z" transform="translate(0 -0.642)"/>
      <path id="타원_637" data-name="타원 637" class="cls-2" d="M2.045-.6A2.645,2.645,0,1,1-.6,2.045,2.648,2.648,0,0,1,2.045-.6Zm0,4.09A1.445,1.445,0,1,0,.6,2.045,1.447,1.447,0,0,0,2.045,3.49Z" transform="translate(9.955 11.319)"/>
      <path id="패스_7714" data-name="패스 7714" class="cls-2" d="M12.8.4c1.6,0,3.057,1.419,4.1,4a24.648,24.648,0,0,1,1.512,8.969A24.648,24.648,0,0,1,16.9,22.333c-1.045,2.577-2.5,4-4.1,4s-3.056-1.419-4.1-4a24.651,24.651,0,0,1-1.512-8.969A24.651,24.651,0,0,1,8.7,4.4C9.742,1.819,11.2.4,12.8.4Zm0,24.729c1.063,0,2.153-1.183,2.99-3.247a23.439,23.439,0,0,0,1.425-8.518,23.439,23.439,0,0,0-1.425-8.518C14.951,2.783,13.861,1.6,12.8,1.6S10.646,2.783,9.809,4.847a23.441,23.441,0,0,0-1.424,8.518,23.441,23.441,0,0,0,1.424,8.518C10.646,23.946,11.735,25.129,12.8,25.129Z" transform="translate(-0.799)"/>
      <path id="패스_7715" data-name="패스 7715" class="cls-2" d="M19.33,5.851c1.918,0,3.266.579,3.9,1.673.8,1.386.3,3.357-1.41,5.55a24.644,24.644,0,0,1-7.01,5.794C11.235,20.93,7.445,22.161,4.67,22.161c-1.918,0-3.266-.579-3.9-1.673-.8-1.386-.3-3.356,1.41-5.55A24.648,24.648,0,0,1,9.193,9.145C12.765,7.082,16.555,5.851,19.33,5.851ZM4.67,20.961c2.574,0,6.139-1.171,9.537-3.133a23.434,23.434,0,0,0,6.664-5.492c1.369-1.756,1.849-3.292,1.318-4.212-.4-.692-1.415-1.073-2.859-1.073-2.573,0-6.139,1.171-9.537,3.133a23.438,23.438,0,0,0-6.664,5.492C1.76,17.433,1.28,18.968,1.812,19.888,2.211,20.58,3.226,20.961,4.67,20.961Z" transform="translate(0 -0.642)"/>
      <path id="패스_7716" data-name="패스 7716" class="cls-2" d="M19.33,22.161c-2.775,0-6.564-1.231-10.137-3.294a24.648,24.648,0,0,1-7.011-5.794C.473,10.88-.027,8.909.772,7.524c.632-1.095,1.98-1.673,3.9-1.673,2.775,0,6.565,1.231,10.137,3.294a24.644,24.644,0,0,1,7.01,5.794c1.709,2.193,2.21,4.164,1.41,5.55C22.6,21.583,21.248,22.161,19.33,22.161ZM4.67,7.051c-1.444,0-2.459.381-2.859,1.073-.531.921-.051,2.456,1.317,4.212a23.439,23.439,0,0,0,6.664,5.492c3.4,1.962,6.963,3.133,9.537,3.133,1.444,0,2.459-.381,2.859-1.073.531-.92.051-2.456-1.318-4.212a23.434,23.434,0,0,0-6.664-5.492C10.809,8.222,7.244,7.051,4.67,7.051Z" transform="translate(0 -0.642)"/>
      <path id="타원_638" data-name="타원 638" class="cls-2" d="M2.045-.6A2.645,2.645,0,1,1-.6,2.045,2.648,2.648,0,0,1,2.045-.6Zm0,4.09A1.445,1.445,0,1,0,.6,2.045,1.447,1.447,0,0,0,2.045,3.49Z" transform="translate(9.955 11.319)"/>
    </g>
    <rect id="사각형_10254" data-name="사각형 10254" class="cls-1" width="32" height="32"/>
  </g>
</svg>
